<svg width="64" height="64" viewBox="0 0 64 64" fill="none" xmlns="http://www.w3.org/2000/svg">
<g id="Books">
<g id="Oval 1" filter="url(#filter0_d_2_113)">
<path fill-rule="evenodd" clip-rule="evenodd" d="M31.9843 55.9686C46.6111 55.9686 58.4686 44.1111 58.4686 29.4843C58.4686 14.8574 46.6111 3 31.9843 3C17.3574 3 5.5 14.8574 5.5 29.4843C5.5 44.1111 17.3574 55.9686 31.9843 55.9686Z" fill="url(#paint0_linear_2_113)" style=""/>
<path d="M31.9844 4.15039C45.9761 4.15044 57.3184 15.4927 57.3184 29.4844C57.3183 43.476 45.976 54.8183 31.9844 54.8184C17.9927 54.8184 6.65044 43.4761 6.65039 29.4844C6.65039 15.4926 17.9926 4.15039 31.9844 4.15039Z" stroke="url(#paint1_linear_2_113)" style="" stroke-width="2.3"/>
</g>
<g id="Group 1">
<g id="Fill 1" filter="url(#filter1_d_2_113)">
<path fill-rule="evenodd" clip-rule="evenodd" d="M32.5392 21.4255C32.5392 21.4255 34.5359 16.8553 39.4889 16.8282C41.5385 16.817 44.1599 17.2459 47.2516 19.6337V38.401C47.2516 38.401 47.4511 40.2468 45.7527 39.2097C44.0553 38.1727 36.897 34.1808 32.5392 42.1398V21.4255Z" fill="url(#paint2_linear_2_113)" style=""/>
</g>
<g id="Fill 1_2" filter="url(#filter2_d_2_113)">
<path fill-rule="evenodd" clip-rule="evenodd" d="M31.4296 21.4263C31.4296 21.4263 29.4329 16.8561 24.4799 16.829C22.4303 16.8178 19.8089 17.2467 16.7172 19.6345V38.4018C16.7172 38.4018 16.5177 40.2477 18.2161 39.2106C19.9134 38.1735 27.0717 34.1817 31.4296 42.1406V21.4263Z" fill="url(#paint3_linear_2_113)" style=""/>
</g>
</g>
</g>
<defs>
<filter id="filter0_d_2_113" x="0.834963" y="0.797066" width="62.2986" height="62.2986" filterUnits="userSpaceOnUse" color-interpolation-filters="sRGB">
<feFlood flood-opacity="0" result="BackgroundImageFix"/>
<feColorMatrix in="SourceAlpha" type="matrix" values="0 0 0 0 0 0 0 0 0 0 0 0 0 0 0 0 0 0 127 0" result="hardAlpha"/>
<feOffset dy="2.4621"/>
<feGaussianBlur stdDeviation="2.33252"/>
<feColorMatrix type="matrix" values="0 0 0 0 0 0 0 0 0 0 0 0 0 0 0 0 0 0 0.237404 0"/>
<feBlend mode="normal" in2="BackgroundImageFix" result="effect1_dropShadow_2_113"/>
<feBlend mode="normal" in="SourceGraphic" in2="effect1_dropShadow_2_113" result="shape"/>
</filter>
<filter id="filter1_d_2_113" x="31.6242" y="16.828" width="16.5495" height="27.1417" filterUnits="userSpaceOnUse" color-interpolation-filters="sRGB">
<feFlood flood-opacity="0" result="BackgroundImageFix"/>
<feColorMatrix in="SourceAlpha" type="matrix" values="0 0 0 0 0 0 0 0 0 0 0 0 0 0 0 0 0 0 127 0" result="hardAlpha"/>
<feOffset dy="0.914961"/>
<feGaussianBlur stdDeviation="0.45748"/>
<feColorMatrix type="matrix" values="0 0 0 0 0 0 0 0 0 0 0 0 0 0 0 0 0 0 0.146145 0"/>
<feBlend mode="normal" in2="BackgroundImageFix" result="effect1_dropShadow_2_113"/>
<feBlend mode="normal" in="SourceGraphic" in2="effect1_dropShadow_2_113" result="shape"/>
</filter>
<filter id="filter2_d_2_113" x="15.795" y="16.8288" width="16.5495" height="27.1417" filterUnits="userSpaceOnUse" color-interpolation-filters="sRGB">
<feFlood flood-opacity="0" result="BackgroundImageFix"/>
<feColorMatrix in="SourceAlpha" type="matrix" values="0 0 0 0 0 0 0 0 0 0 0 0 0 0 0 0 0 0 127 0" result="hardAlpha"/>
<feOffset dy="0.914961"/>
<feGaussianBlur stdDeviation="0.45748"/>
<feColorMatrix type="matrix" values="0 0 0 0 0 0 0 0 0 0 0 0 0 0 0 0 0 0 0.146145 0"/>
<feBlend mode="normal" in2="BackgroundImageFix" result="effect1_dropShadow_2_113"/>
<feBlend mode="normal" in="SourceGraphic" in2="effect1_dropShadow_2_113" result="shape"/>
</filter>
<linearGradient id="paint0_linear_2_113" x1="7.22855" y1="5.66513" x2="7.22855" y2="55.1766" gradientUnits="userSpaceOnUse">
<stop stop-color="#FFBF2D" style="stop-color:#FFBF2D;stop-color:color(display-p3 1.0000 0.7490 0.1765);stop-opacity:1;"/>
<stop offset="1" stop-color="#DE4C00" style="stop-color:#DE4C00;stop-color:color(display-p3 0.8706 0.2980 0.0000);stop-opacity:1;"/>
</linearGradient>
<linearGradient id="paint1_linear_2_113" x1="5.5" y1="3" x2="5.5" y2="55.9686" gradientUnits="userSpaceOnUse">
<stop stop-color="#FCFEFE" style="stop-color:#FCFEFE;stop-color:color(display-p3 0.9882 0.9961 0.9961);stop-opacity:1;"/>
<stop offset="1" stop-color="#C8D0D4" style="stop-color:#C8D0D4;stop-color:color(display-p3 0.7843 0.8157 0.8314);stop-opacity:1;"/>
</linearGradient>
<linearGradient id="paint2_linear_2_113" x1="32.5392" y1="16.828" x2="32.5392" y2="42.1398" gradientUnits="userSpaceOnUse">
<stop stop-color="#FCFEFE" style="stop-color:#FCFEFE;stop-color:color(display-p3 0.9882 0.9961 0.9961);stop-opacity:1;"/>
<stop offset="1" stop-color="#C8D0D4" style="stop-color:#C8D0D4;stop-color:color(display-p3 0.7843 0.8157 0.8314);stop-opacity:1;"/>
</linearGradient>
<linearGradient id="paint3_linear_2_113" x1="31.4296" y1="16.8288" x2="31.4296" y2="42.1406" gradientUnits="userSpaceOnUse">
<stop stop-color="#FCFEFE" style="stop-color:#FCFEFE;stop-color:color(display-p3 0.9882 0.9961 0.9961);stop-opacity:1;"/>
<stop offset="1" stop-color="#C8D0D4" style="stop-color:#C8D0D4;stop-color:color(display-p3 0.7843 0.8157 0.8314);stop-opacity:1;"/>
</linearGradient>
</defs>
</svg>
